<svg xmlns="http://www.w3.org/2000/svg" xmlns:xlink="http://www.w3.org/1999/xlink" width="342" height="65" viewBox="0 0 342 65"><defs><style>.cls-1{fill:none;}.cls-2{isolation:isolate;}.cls-3{clip-path:url(#clip-path);}.cls-4{opacity:0.14;fill:url(#New_Gradient_Swatch_2);}.cls-4,.cls-5,.cls-6,.cls-7,.cls-8{mix-blend-mode:screen;}.cls-5{opacity:0.31;fill:url(#New_Gradient_Swatch_2-2);}.cls-6{opacity:0.42;fill:url(#radial-gradient);}.cls-7{opacity:0.5;fill:url(#radial-gradient-2);}.cls-8{opacity:0.13;fill:url(#New_Gradient_Swatch_2-3);}.cls-9{fill:#39b54a;}.cls-10{fill:#8cc63f;}.cls-11{fill:#29abe2;}.cls-12{fill:#fff;stroke:#29abe2;stroke-width:4px;}.cls-13{fill:#c1272d;}</style><clipPath id="clip-path"><rect class="cls-1" x="-1054" y="198.6" width="1494" height="766"/></clipPath><radialGradient id="New_Gradient_Swatch_2" cx="243.36" cy="-34498.95" r="956.36" gradientTransform="matrix(-1.05, 0.9, -0.02, -0.05, -1338.8, -1216.82)" gradientUnits="userSpaceOnUse"><stop offset="0" stop-color="#fff"/><stop offset="0.06" stop-color="#e0e0e0"/><stop offset="0.19" stop-color="#a6a6a6"/><stop offset="0.31" stop-color="#737373"/><stop offset="0.43" stop-color="#4a4a4a"/><stop offset="0.55" stop-color="#2a2a2a"/><stop offset="0.66" stop-color="#131313"/><stop offset="0.76" stop-color="#050505"/><stop offset="0.86"/></radialGradient><radialGradient id="New_Gradient_Swatch_2-2" cx="-280.89" cy="-28458.96" r="633.72" gradientTransform="matrix(-1.24, -0.6, 0.03, -0.04, 48.59, -947.32)" xlink:href="#New_Gradient_Swatch_2"/><radialGradient id="radial-gradient" cx="-529.09" cy="395.53" r="568.96" gradientUnits="userSpaceOnUse"><stop offset="0" stop-color="#fff"/><stop offset="0.07" stop-color="#e0e0e0"/><stop offset="0.22" stop-color="#a6a6a6"/><stop offset="0.36" stop-color="#737373"/><stop offset="0.5" stop-color="#4a4a4a"/><stop offset="0.64" stop-color="#2a2a2a"/><stop offset="0.77" stop-color="#131313"/><stop offset="0.89" stop-color="#050505"/><stop offset="1"/></radialGradient><radialGradient id="radial-gradient-2" cx="-581.3" cy="456.72" r="507.02" gradientTransform="matrix(0.67, -0.87, 0.83, 0.64, -489.35, -428.68)" xlink:href="#radial-gradient"/><radialGradient id="New_Gradient_Swatch_2-3" cx="-1168.84" cy="-42119.48" r="641.28" gradientTransform="matrix(0.94, 1.22, -0.04, 0.03, -941.42, 2987.74)" xlink:href="#New_Gradient_Swatch_2"/></defs><title>logo</title><g class="cls-2"><g id="bg-img"><g class="cls-3"><path class="cls-4" d="M-1748.2,1451.9c-13.1-24.4,426-429.3,979.5-904S246.4-290.7,258.6-266.6c13.9,24.2-425.2,427.9-980.2,902.5S-1735.4,1475.7-1748.2,1451.9Z"/><path class="cls-5" d="M-1315.2,3.7c11.4-14.4,373.3,145.6,807.9,356.7S270.1,755.9,258.8,769.7-113.5,624.2-548.4,412.2-1326.3,17.8-1315.2,3.7Z"/><path class="cls-6" d="M39.9,395.5c0,314.2-254.7,569-568.9,569s-569.1-254.8-569.1-569S-843.3-173.4-529-173.4,39.9,81.3,39.9,395.5Z"/><path class="cls-7" d="M-159.9-71.4C72.8,107.9,108.5,451.7-80.1,696.7s-530.4,298.1-763,118.9-268.4-523.1-79.7-768.1S-392.6-250.6-159.9-71.4Z"/><path class="cls-8" d="M59.6,1145.6c-13.4,10.3-304.3-345.5-649.9-795.4S-888.8-74.5-1046-273.8C-1221.7-496.3-887.7-136.1-542.2,313S73.1,1135.2,59.6,1145.6Z"/></g></g><g id="txt"><path class="cls-9" d="M88.8,42.3H85.6l-.2,2H73.3v-2h-3V41h3.1l.2-1.9H85.9L85.7,41h3.1Zm-2.4,9.4H77.1l.9,1a21.1,21.1,0,0,1-6.8,1.8l-.7-1.6a21,21,0,0,0,5.9-1.2H72.9V45H86.4Zm1.9-11.5H86.4V38.4H72.7v1.8H70.9V37h7.4l-.4-.9,2-.3.5,1.2h7.9Zm-3.7,6.7v-.6H74.7v.6Zm0,1.8V48H74.7v.7Zm0,1.8v-.7H74.7v.7Zm-6-8.2H75.2v.8h3.4Zm.3-2H75.4V41h3.5Zm4.9,2H80.4v.8h3.4Zm.2-2H80.6V41h3.3Zm4.7,12.8-.6,1.5a41.3,41.3,0,0,0-6.6-1.1L82,52A37.4,37.4,0,0,1,88.7,53.1Z"/><path class="cls-9" d="M98,39.5H91.5V37.8H94a12.3,12.3,0,0,0-.8-1.5l2-.6a17.8,17.8,0,0,0,1,2.1H98Zm-.6,14.4H95.6V53H93.8v1.4H92V47.1h5.4Zm0-11.3H92V40.9h5.4Zm.1,3.1H92V43.9h5.5Zm-1.9,5.6V48.8H93.8v2.5ZM110,43.2l-.9,1.4a11.1,11.1,0,0,1-2.5-2.2v1.2h-5.7V42.5a9.5,9.5,0,0,1-2,2l-1.1-1.3a18.9,18.9,0,0,0,2-2,9.1,9.1,0,0,0-1.6-1.3l1.2-1.2,1.3,1.1a11.4,11.4,0,0,0,.9-1.9H98.7V36.4h4.6V38a17.7,17.7,0,0,1-1.9,3.9h4.8a12.5,12.5,0,0,1-2.3-5.7l1.6-.2a8.9,8.9,0,0,0,.2,1.1l1.3-1,1.1,1.1a11,11,0,0,1-1.8,1.4,1.3,1.3,0,0,0,.3.7,6.8,6.8,0,0,0,2-1.5l1.2,1.3a15.3,15.3,0,0,1-2.3,1.7A11.6,11.6,0,0,0,110,43.2Zm-.5,10.9H98.1V52.4H101a11.9,11.9,0,0,0-.8-2l1.3-.7H99.4v-5h8.7v5h-2.3l1.4.8-.6,1.9h2.9ZM106.3,48V46.3h-5.1V48Zm-.8,1.7h-3.6a16.9,16.9,0,0,1,1,2.7h1.6A11.2,11.2,0,0,0,105.5,49.7Z"/><path class="cls-10" d="M121.9,37.4h-4a2.5,2.5,0,0,1-.4.7h3.9v1h-1.9a3.4,3.4,0,0,1-.1.9h2.3v1.1h-2.1l2,1-.7,1.1h.7v1.3h-6.8c-1.1,0-1.7-.6-1.7-1.9V37.4h-.6V36.3h9.4Zm8.9,9h-6.3v.9h4.8v7h-1.8v-.5H115.7v.5h-1.8v-7h5a2.8,2.8,0,0,0,.1-.9h-6.5V45.2h18.3Zm-12.9-7.3h-1l-.7.7-1.1-.8a6.6,6.6,0,0,0,1.2-1.6h-1.4v5.4c0,.3.2.4.5.4h.5l-.7-1.1a4.7,4.7,0,0,0,2-1h-1.8V40h2.4A2.8,2.8,0,0,0,117.9,39.1Zm9.6,13.5V50.2h-3.3c-1,0-1.4-.4-1.4-1.2v-.5h-2.5a3.9,3.9,0,0,1-1.8,1.8,4.1,4.1,0,0,1-1.8.5l-.8-1.4a3.6,3.6,0,0,0,2.4-.9h-2.6v4.1Zm-6.9-9.4L118.5,42a5.3,5.3,0,0,1-2.1,1.2Zm5.4,8.7h-8.7v-1H126Zm-3.2-4.6v-.9h-2c0,.3-.1.6-.1.9Zm7.8-8.1h-2.2l-.9-.2a1,1,0,0,1-.3-.8v-.8h-2.3a3,3,0,0,1-1.6,2.3l-1.3-1a2.2,2.2,0,0,0,1.4-2.4h5.5v1.5c0,.2,0,.2.2.2h1.5Zm.1,4.4-1,1.2a18.7,18.7,0,0,0-3-1.4,17.8,17.8,0,0,1-3.9,1.3l-.7-1.4a13.1,13.1,0,0,0,2.7-.7l-2-.6.8-.9h-1.2V39.9h7.3v1.2a9.2,9.2,0,0,1-1.4,1.3Zm-3.2,5.6v-.7h-3v.3c0,.3.1.4.4.4Zm.2-8.1h-3l2,.7Z"/><path class="cls-10" d="M151.7,51.2h-8.1v1.3a1.8,1.8,0,0,1-.3,1.1,1.6,1.6,0,0,1-.8.6h-3.3l-.6-1.7h2.7c.3,0,.4-.1.4-.3V51.2h-8.3V49.7h8.3v-.9a20.2,20.2,0,0,0,2.9-.8h-7.8V46.6H148V48a30.3,30.3,0,0,1-4.4,1.6h8.1Zm-.3-3.1h-1.8V45.7h-14v2.4h-1.9V44.2H135l-.4-7.5a14.2,14.2,0,0,0,4.1-.8l.9,1.5a15.5,15.5,0,0,1-3.1.6v1.1h2.8v1.4h-2.7v1.2h2.6V43h-2.6v1.2h11.6V43h-2.8V41.7h2.9V40.5h-2.9V39.1h3V38h-3.2V36.5h5.1l-.4,7.7h1.3ZM145,36.5a4.4,4.4,0,0,1-1.4,1.3l1,.9-1.1,1-1.1-1-2.1,1.1-.9-1.2a7.6,7.6,0,0,0,1.8-.9l-1.2-.8,1.1-1.1,1.4,1.1,1.1-1Zm.1,6.6-1.1,1a7.9,7.9,0,0,0-1.4-1.3l-2.2,1.1-.8-1.1,1.8-1-1.4-.9,1-1.1,1.6,1.2,1.2-1.2,1.3.8a7.4,7.4,0,0,1-1.3,1.2A15.9,15.9,0,0,1,145.1,43.1Z"/><path class="cls-11" d="M165.3,37.3a31.1,31.1,0,0,1-2.5,3.8h1.5v1.6h-2.9a13.2,13.2,0,0,1-1.7,1.7h3.7v1.5a23,23,0,0,1-2.7,2.2v.3l3.7-.7v1.8l-3.8.6v2.3a2.4,2.4,0,0,1-.4,1.5,3,3,0,0,1-2,.5h-1.2l-.6-1.8H158c.6,0,.9-.2.9-.5V50.4l-4.2.5-.3-1.8,4.5-.4V47.4l2-1.4h-3.4l-2.3,1.4-1-1.5a18.8,18.8,0,0,0,4.9-3.2h-4.7V41.1h3.9V39.3h-3.1V37.7h3.1V36h1.8v1.7h2.1v1.4a15.1,15.1,0,0,0,1.5-2.6Zm-3.2,2h-2v1.8h.6ZM172.9,53l-1.1,1.5a14.2,14.2,0,0,1-3.6-3.2,15.3,15.3,0,0,1-4.2,3.1L162.8,53a12.9,12.9,0,0,0,4.4-3.2,12.6,12.6,0,0,1-1.4-4.3l1.6-.7a12.2,12.2,0,0,0,.9,3.2,19.7,19.7,0,0,0,1.4-7.3h-2.3a21.7,21.7,0,0,1-2.3,5.2L164,44.5a21.6,21.6,0,0,0,2.6-8.6l1.7.3a27,27,0,0,1-.4,2.8h4.8v1.7h-1.3c-.2,4.1-.9,7.2-2.1,9.2A10.1,10.1,0,0,0,172.9,53Z"/><path class="cls-11" d="M193.7,51.2h-8.1v1.3a1.8,1.8,0,0,1-.3,1.1,1.6,1.6,0,0,1-.8.6h-3.3l-.6-1.7h2.7c.3,0,.4-.1.4-.3V51.2h-8.3V49.7h8.3v-.9a20.2,20.2,0,0,0,2.9-.8h-7.8V46.6H190V48a30.3,30.3,0,0,1-4.4,1.6h8.1Zm-.3-3.1h-1.8V45.7h-14v2.4h-1.9V44.2H177l-.4-7.5a14.2,14.2,0,0,0,4.1-.8l.9,1.5a15.5,15.5,0,0,1-3.1.6v1.1h2.8v1.4h-2.7v1.2h2.6V43h-2.6v1.2h11.6V43h-2.8V41.7h2.9V40.5h-2.9V39.1h3V38h-3.2V36.5h5.1l-.4,7.7h1.3ZM187,36.5a4.4,4.4,0,0,1-1.4,1.3l1,.9-1.1,1-1.1-1-2.1,1.1-.9-1.2a7.6,7.6,0,0,0,1.8-.9l-1.2-.8,1.1-1.1,1.4,1.1,1.1-1Zm.1,6.6-1.1,1a7.9,7.9,0,0,0-1.4-1.3l-2.2,1.1-.8-1.1,1.8-1-1.4-.9,1-1.1,1.6,1.2,1.2-1.2,1.3.8a7.4,7.4,0,0,1-1.3,1.2A15.9,15.9,0,0,1,187.1,43.1Z"/><path class="cls-11" d="M203.6,38.4h-2.8a25.4,25.4,0,0,1-1.2,4.5h3.6V53.3h-1.8v-.9h-1.5v1.5h-1.8V46.2a5.2,5.2,0,0,1-.8,1.1l-1-1.8a19.1,19.1,0,0,0,2.6-7.1h-2.3V36.6h7Zm-2.2,12.2V44.8h-1.5v5.8Zm13.3-5.5h-2.4v9.2h-1.9V45.1H208q.1,5.9-3,9.3L203.7,53a7.5,7.5,0,0,0,1.8-2.8,16,16,0,0,0,.6-5.1h-2.2V43.3h2.2V38.4h-1.7V36.6h10v1.8h-2.1v4.9h2.4Zm-4.3-1.8V38.4H208v4.9Z"/><path class="cls-11" d="M235.2,41.8h-1.8V39.5h-3.7v2.8c0,.3.1.4.4.4h4.3v1.8h-4.7a1.7,1.7,0,0,1-1.9-1.8V39.5h-2.3a6.9,6.9,0,0,1-2.5,4.1,12.6,12.6,0,0,1-4.6,1.7l-1-1.7a13.7,13.7,0,0,0,4.3-1.3,3.7,3.7,0,0,0,1.8-2.8h-3.7v2.3h-1.9V37.7h7.5a5.2,5.2,0,0,0-.8-1.1l1.9-.7a14,14,0,0,1,1.2,1.8h7.5Zm.6,7.9a14.1,14.1,0,0,1-.4,3.3,1.8,1.8,0,0,1-.8.9,6.5,6.5,0,0,1-2.5.3,6.9,6.9,0,0,1-2-.2,1.6,1.6,0,0,1-.8-.6,2.8,2.8,0,0,1-.2-1.4l.2-4.2h-3.7c-.6,3.1-2.9,5.3-6.9,6.7l-1.2-1.6c3.6-1.3,5.7-3,6.1-5.1h-5.1V46h5.4a17.8,17.8,0,0,0,.1-2.5h2c0,.7-.1,1.6-.1,2.5h5.4l-.3,5.8a.5.5,0,0,0,.2.4h2.2l.3-.2c0-.1.1-.5.2-1.3s.1-1.3.1-1.8Z"/><path class="cls-11" d="M256.7,53.9H238.4V52.1h11.9l.6-2.9H240.6l3.3-10.8h-5.1V36.5h17.7v1.9H245.9l-.8,2.6h9.3l-2.1,11.1h4.4Zm-4.6-11h-7.5l-1.4,4.5h8Z"/><path class="cls-11" d="M269.6,40.9h-4v1.2h3.6v6.1h-3.6v1.2h3.6v1.5h-3.6v1.3l3.7-.5v1.5c-3.1.5-6.3.9-9.7,1.2l-.3-1.5,4.5-.4V50.9h-3.7V49.4h3.7V48.2h-3.7V42.1h3.7V40.9h-4.2V39.3h4.2V38.1a26.8,26.8,0,0,1-3.3.3l-.5-1.5a52.9,52.9,0,0,0,8.6-.9l.7,1.3-3.8.6v1.4h4Zm-5.7,3.6V43.4h-2v1.1Zm0,2.4V45.8h-2v1.1Zm3.6-2.4V43.4h-1.9v1.1Zm0,2.4V45.8h-1.9v1.1Zm9.9-7c0,3-.1,5.8-.2,8.5a21.9,21.9,0,0,1-.4,4.7,1.7,1.7,0,0,1-.7,1,3.4,3.4,0,0,1-1.7.3h-1.1l-.5-1.8h1.3c.6,0,.9,0,1-.2a15.8,15.8,0,0,0,.4-3.7c.1-2.4.2-4.7.1-7h-1.8A26.3,26.3,0,0,1,271,54.5l-1.6-.8a23.1,23.1,0,0,0,2.6-12h-1.8V39.9h1.9V36.1h1.8c0,1.3,0,2.6-.1,3.8Z"/><path class="cls-11" d="M290.3,46.2h-3.8a2.5,2.5,0,0,0-.2.7,32.7,32.7,0,0,1,3.8,4.8L288.7,53a25.4,25.4,0,0,0-3-4.2,18.7,18.7,0,0,1-4.1,5.8l-1.3-1.3a14.8,14.8,0,0,0,4.3-7.1h-4.1V44.4h4.3c.1-1.2.2-2.5.2-3.9h-1.4c-.6,1-1.3,2-1.9,2.8L280.3,42a23.1,23.1,0,0,0,3.4-6.1l1.7.4a11.7,11.7,0,0,1-.9,2.4h5.2v1.8h-2.9c0,.9,0,2.2-.1,3.9h3.6Zm7.8,7.7h-1.8V52.4h-3.5v1.5H291V37.6h7.1Zm-1.8-3.2V39.4h-3.5V50.7Z"/><path class="cls-11" d="M307.5,39.5h-6V37.8h2.3a10.1,10.1,0,0,0-.7-1.5l1.9-.5a19.1,19.1,0,0,0,.9,2h1.6ZM307,53.9h-1.7V53h-1.6v1.3h-1.8V47.1H307Zm0-8.2h-5.1V44H307Zm0-3.1h-5V41h5Zm-1.7,8.7V48.8h-1.6v2.5Zm14.6-.6a5.9,5.9,0,0,1-.5,2.2c-.3.8-.5,1.3-.8,1.5l-.8.2c-.8,0-1.5-.8-1.9-2.4a23,23,0,0,1-2.5,2.3l-1.3-1.2a5.8,5.8,0,0,0,1.5-1.3h-5.3V44.3H314v7.4a10,10,0,0,0,1.4-1.6q-.3-3-.3-6.6h-7.5V41.9h1.7a18.2,18.2,0,0,0-.7-2.5h-.5V37.8h2.3a3.7,3.7,0,0,0-.7-1.4l1.9-.5a10.8,10.8,0,0,1,.8,1.9h2.1v1.6H314c-.2.8-.5,1.6-.8,2.5H315c0-2.9,0-4.8.1-5.8h1.7c0,1.5-.1,3.4-.1,5.8h3.1v1.6h-3c0,1.7,0,3,.1,4a14,14,0,0,0,1.1-3.3l1.6.7a17.4,17.4,0,0,1-2.4,5.6,5,5,0,0,0,.7,1.9,7.6,7.6,0,0,0,.5-2.6Zm-7.6-3.3V45.9H310v1.5Zm0,3V48.9H310v1.5Zm-.2-11h-1.8a12.6,12.6,0,0,1,.7,2.5h.4A8.6,8.6,0,0,0,312.1,39.4Zm7.7,1.3-1.6.6a16,16,0,0,0-1-3.9l1.5-.7A24.9,24.9,0,0,1,319.8,40.7Z"/><path class="cls-11" d="M325,49.5a23.5,23.5,0,0,1-1.1,4.9l-1.6-.8a25.2,25.2,0,0,0,1-4.6Zm4.6-10.2a29.6,29.6,0,0,1-4.6,7.3l2.4-.5a8.3,8.3,0,0,0-.4-1.2l1.5-.5a25.7,25.7,0,0,1,1.1,3.6l-1.5.5a6.4,6.4,0,0,1-.2-.9,50.3,50.3,0,0,1-5,1.1l-.5-1.6a28.8,28.8,0,0,0,3.3-4.3l-2.8.5-.3-1.7a21.8,21.8,0,0,0,3.1-5.7l1.7.7a16.4,16.4,0,0,1-2.5,4.6,5.8,5.8,0,0,0,1.9-.3,16.1,16.1,0,0,0,1.2-2.3Zm-2.1,14.1-1.7.3a17.6,17.6,0,0,0-.4-4.2l1.6-.2C327.2,50.5,327.4,51.9,327.5,53.4Zm2-.7-1.4.2a19.1,19.1,0,0,0-.6-3.7l1.4-.2A22,22,0,0,1,329.5,52.7Zm10.7-.1a1.7,1.7,0,0,1-.5,1.3,3.2,3.2,0,0,1-2,.5h-1.1l-.6-1.7h2.4c0-.1.1-.2.1-.3v-14h-6.9V54.4h-1.7v-18h10.3Zm-2.3-9.5h-5.7V41.5h.9a16.9,16.9,0,0,0-.8-2.4l1.6-.4a11.5,11.5,0,0,1,.9,2.8h.4a16.9,16.9,0,0,0,1-2.7l1.6.4a20.9,20.9,0,0,1-.8,2.3h.9Zm-.1,3.7h-3.3v2.7a.2.2,0,0,0,.2.2h2.9v1.7h-3.1a1.4,1.4,0,0,1-1.6-1.6V46.8h-.7V45.2h2.2a8.8,8.8,0,0,0-.5-1.5l1.7-.3.7,1.8h1.5Z"/><ellipse class="cls-12" cx="32.1" cy="32.5" rx="30.1" ry="30.5"/><path class="cls-9" d="M43,40.8a23.4,23.4,0,0,1-5.2,6.1A17.1,17.1,0,0,1,29.5,51a62,62,0,0,1-6.2.6c-5.3,0-9.2-1.6-11.5-4.7-4.4-5.7-1.9-15.3.4-21.4a8.5,8.5,0,0,0,2.3.3h1.8c-2.3,5.7-4.7,14.4-1.4,18.7s6.2,3.4,10.5,3h1.8A11.9,11.9,0,0,0,32.1,46a22.9,22.9,0,0,0,4.3-3.2A16.1,16.1,0,0,0,39.5,39c1.8-3.5,2-6.9.4-8.4a4.1,4.1,0,0,0-3.2-.9A9.2,9.2,0,0,0,32,31.8a7.6,7.6,0,0,0-4.4-2.1h-.5a4.5,4.5,0,0,0-2.7,1c-1.6,1.5-1.4,4.9.4,8.3A16.5,16.5,0,0,0,30,44.5h0a18.8,18.8,0,0,1-4.8,1.2,20.5,20.5,0,0,1-3.9-4.9c-2.7-5.1-2.6-10.3.4-13.1A7.6,7.6,0,0,1,24.9,26a7.7,7.7,0,0,1,3-.3,8.4,8.4,0,0,1,4.3,1.6,8.4,8.4,0,0,1,10.4.4C45.5,30.5,45.7,35.7,43,40.8Z"/><path class="cls-9" d="M52.5,46.9C50.2,50,46.3,51.6,41,51.6a34.3,34.3,0,0,1-5.6-.5,13.7,13.7,0,0,0,2.4-1.8l.5-.4,1.6-1.3c4,.2,7.6-.5,9.5-3.1s1.1-12.2-1.1-18a9.3,9.3,0,0,0,3.6-1.4C54.3,31.1,57,41,52.5,46.9Z"/><path class="cls-9" d="M51.4,21.6a3,3,0,1,1-3-3A3,3,0,0,1,51.4,21.6Z"/><path class="cls-9" d="M18.4,21.6a3,3,0,1,1-3-3A3,3,0,0,1,18.4,21.6Z"/><path class="cls-9" d="M32.1,10.1c-8.5,0-15.4,6.6-15.4,6.6s6.9,6.5,15.4,6.5,15.5-6.5,15.5-6.5S40.7,10.1,32.1,10.1Zm0,9.5a3,3,0,0,1,0-5.9,3,3,0,1,1,0,5.9Z"/><path class="cls-13" d="M36.9,33.4a3.1,3.1,0,0,0-4.3.3l-.5.4-.4-.4a3.1,3.1,0,0,0-4.3-.3,3.4,3.4,0,0,0-.2,4.8l4.4,4.6a.8.8,0,0,0,1.1,0l4.4-4.6a3.4,3.4,0,0,0-.2-4.8Z"/><path class="cls-9" d="M80.6,20.6l3.1,1a6.4,6.4,0,0,1-6.5,5.1A6.7,6.7,0,0,1,72,24.5a8.2,8.2,0,0,1-2-5.8,8.1,8.1,0,0,1,2.1-6,6.7,6.7,0,0,1,5.3-2.2A6.5,6.5,0,0,1,82,12.2a5.8,5.8,0,0,1,1.6,2.9l-3.1.7a3.5,3.5,0,0,0-1.2-1.9,3.1,3.1,0,0,0-2.1-.7,3.5,3.5,0,0,0-2.8,1.2,6.5,6.5,0,0,0-1.1,4.1c0,2,.3,3.4,1.1,4.2A3.5,3.5,0,0,0,77.1,24a3.3,3.3,0,0,0,2.2-.8A5.3,5.3,0,0,0,80.6,20.6Z"/><path class="cls-10" d="M90.2,24l2,.3a3.2,3.2,0,0,1-3.3,2.3A3.5,3.5,0,0,1,86,25.3a4.8,4.8,0,0,1,.2-5.6,3.7,3.7,0,0,1,5.2.1,5.3,5.3,0,0,1,.9,3.4h-5a2,2,0,0,0,.5,1.4,1.6,1.6,0,0,0,1.1.5,1.1,1.1,0,0,0,.8-.3A1.6,1.6,0,0,0,90.2,24Zm.1-2a2.2,2.2,0,0,0-.4-1.3,1.5,1.5,0,0,0-2.2,0,2.2,2.2,0,0,0-.4,1.3Z"/><path class="cls-10" d="M100.8,26.4h-2V22.5c0-.8-.1-1.3-.1-1.5a1,1,0,0,0-.5-.6l-.7-.2-.9.3a1.3,1.3,0,0,0-.6.7,8.2,8.2,0,0,0-.1,1.8v3.4h-2V18.8h1.9V20a2.7,2.7,0,0,1,2.4-1.3l1.2.2.9.6a2.5,2.5,0,0,1,.4.9c0,.3.1.7.1,1.3Z"/><path class="cls-10" d="M106.3,18.8v1.6h-1.4v4.2l.2.2h.4l.8-.2v1.6a3.7,3.7,0,0,1-1.5.3l-1-.2a1.8,1.8,0,0,1-.7-.5,1.5,1.5,0,0,1-.2-.8,4.5,4.5,0,0,1-.1-1.4V20.4H102V18.8h.9V17.3l2-1.1v2.6Z"/><path class="cls-10" d="M112,24l2,.3a2.7,2.7,0,0,1-1.2,1.7,3.9,3.9,0,0,1-5-.7,4.4,4.4,0,0,1-.7-2.6,4.5,4.5,0,0,1,.9-3,3.3,3.3,0,0,1,2.5-1,3.2,3.2,0,0,1,2.7,1.1,5.3,5.3,0,0,1,.9,3.4h-5a2,2,0,0,0,.5,1.4,1.7,1.7,0,0,0,1.2.5.9.9,0,0,0,.7-.3A1.1,1.1,0,0,0,112,24Zm.1-2a1.7,1.7,0,0,0-.4-1.3,1.4,1.4,0,0,0-1-.5,1.4,1.4,0,0,0-1.1.5,1.4,1.4,0,0,0-.4,1.3Z"/><path class="cls-10" d="M117.7,26.4h-2V18.8h1.8v1.1a3,3,0,0,1,.9-1l.8-.2a2.5,2.5,0,0,1,1.4.4l-.7,1.7-.9-.3a.8.8,0,0,0-.7.2,1.6,1.6,0,0,0-.5.8,15.7,15.7,0,0,0-.1,2.6Z"/><path class="cls-10" d="M124.6,18.8h1.1v-.5a4.1,4.1,0,0,1,.2-1.4,1.4,1.4,0,0,1,.7-.8,3.2,3.2,0,0,1,1.4-.3,5.1,5.1,0,0,1,1.7.3l-.3,1.3h-.9a.8.8,0,0,0-.6.2,1.5,1.5,0,0,0-.2.8v.5h1.5v1.6h-1.5v6h-2v-6h-1.1Z"/><path class="cls-10" d="M129.8,22.5a4.5,4.5,0,0,1,.5-1.9,3.8,3.8,0,0,1,1.4-1.4,3.5,3.5,0,0,1,2-.5,3.4,3.4,0,0,1,2.8,1.1,3.6,3.6,0,0,1,1.1,2.8,3.6,3.6,0,0,1-1.1,2.8,3.5,3.5,0,0,1-2.8,1.2,4.5,4.5,0,0,1-1.9-.5,3.4,3.4,0,0,1-1.5-1.4A4.8,4.8,0,0,1,129.8,22.5Zm2.1.1a2.6,2.6,0,0,0,.5,1.7,1.8,1.8,0,0,0,1.3.6,1.5,1.5,0,0,0,1.3-.6,2.2,2.2,0,0,0,.6-1.7,2.4,2.4,0,0,0-.6-1.7,1.5,1.5,0,0,0-1.3-.6,1.8,1.8,0,0,0-1.3.6A2.9,2.9,0,0,0,131.9,22.6Z"/><path class="cls-10" d="M141.1,26.4h-2V18.8H141v1.1a4.9,4.9,0,0,1,.8-1l.9-.2a2.2,2.2,0,0,1,1.3.4l-.6,1.7-1-.3a1,1,0,0,0-.7.2,1.5,1.5,0,0,0-.4.8,12.6,12.6,0,0,0-.2,2.6Z"/><path class="cls-9" d="M149.4,26.4V10.8H161v2.6h-8.4v3.5h7.8v2.6h-7.8v4.3h8.7v2.6Z"/><path class="cls-10" d="M165.5,26.4l-3-7.6h2.1l1.4,3.9.4,1.3.2-.7a1.4,1.4,0,0,0,.2-.6l1.5-3.9h2l-3,7.6Z"/><path class="cls-10" d="M171.6,17.8V16h2v1.8Zm0,8.6V18.8h2v7.6Z"/><path class="cls-10" d="M182.5,26.4h-1.8V25.3a3.1,3.1,0,0,1-1.1.9,2.2,2.2,0,0,1-1.3.4,2.8,2.8,0,0,1-2.2-1.1,4.4,4.4,0,0,1-.9-2.9,4,4,0,0,1,.9-2.9,2.9,2.9,0,0,1,4.4,0V16h2Zm-5.3-3.9a3.7,3.7,0,0,0,.3,1.7,1.6,1.6,0,0,0,2.6.2,3,3,0,0,0,.4-1.8,3,3,0,0,0-.4-1.8,1.5,1.5,0,0,0-2.4,0A2.5,2.5,0,0,0,177.2,22.5Z"/><path class="cls-10" d="M188.9,24l2,.3a3.3,3.3,0,0,1-1.3,1.7,3.2,3.2,0,0,1-2,.6,3.5,3.5,0,0,1-2.9-1.3,4.5,4.5,0,0,1-.8-2.6,4,4,0,0,1,1-3,3.2,3.2,0,0,1,2.5-1,3,3,0,0,1,2.6,1.1,4.8,4.8,0,0,1,1,3.4h-5a2,2,0,0,0,.4,1.4,1.8,1.8,0,0,0,1.2.5,1.1,1.1,0,0,0,.8-.3A1.6,1.6,0,0,0,188.9,24Zm.1-2a1.7,1.7,0,0,0-.5-1.3,1.4,1.4,0,0,0-1-.5,1.6,1.6,0,0,0-1.1.5A1.7,1.7,0,0,0,186,22Z"/><path class="cls-10" d="M199.5,26.4h-2V22.5a4,4,0,0,0-.2-1.5.9.9,0,0,0-.4-.6l-.7-.2a1.6,1.6,0,0,0-.9.3,1.3,1.3,0,0,0-.6.7,8.2,8.2,0,0,0-.1,1.8v3.4h-2V18.8h1.8V20a3,3,0,0,1,2.5-1.3l1.2.2.9.6a2.4,2.4,0,0,1,.3.9,3.9,3.9,0,0,1,.2,1.3Z"/><path class="cls-10" d="M208.1,21.1l-2,.3a1.3,1.3,0,0,0-.5-.9,1.2,1.2,0,0,0-.9-.3,1.4,1.4,0,0,0-1.2.6,2.5,2.5,0,0,0-.4,1.7,3.2,3.2,0,0,0,.4,1.9,1.5,1.5,0,0,0,1.3.5,1.6,1.6,0,0,0,.9-.3,2.3,2.3,0,0,0,.5-1.1l2,.3a3.7,3.7,0,0,1-1.2,2.1,4.2,4.2,0,0,1-2.3.7,3.7,3.7,0,0,1-2.7-1.1,4.2,4.2,0,0,1-1-2.9,4.4,4.4,0,0,1,1-2.9,4.2,4.2,0,0,1,4.9-.4A4.1,4.1,0,0,1,208.1,21.1Z"/><path class="cls-10" d="M213.9,24l2,.3a2.7,2.7,0,0,1-1.2,1.7,3.2,3.2,0,0,1-2,.6,3.7,3.7,0,0,1-3-1.3,4.4,4.4,0,0,1-.7-2.6,4,4,0,0,1,1-3,3.2,3.2,0,0,1,2.5-1,3,3,0,0,1,2.6,1.1,4.3,4.3,0,0,1,.9,3.4h-5a2.6,2.6,0,0,0,.5,1.4,1.7,1.7,0,0,0,1.2.5,1.1,1.1,0,0,0,.8-.3A1.5,1.5,0,0,0,213.9,24Zm.2-2a2.2,2.2,0,0,0-.5-1.3,1.4,1.4,0,0,0-1-.5,1.4,1.4,0,0,0-1.1.5,1.7,1.7,0,0,0-.4,1.3Z"/><path class="cls-9" d="M222.3,10.8h9a3.3,3.3,0,0,1,1.6.7,3,3,0,0,1,1.2,1.3,3.5,3.5,0,0,1,.5,1.8,3.8,3.8,0,0,1-2.2,3.4,3.8,3.8,0,0,1,2.2,1.4,4.1,4.1,0,0,1,.8,2.4,4.6,4.6,0,0,1-.5,2,4.4,4.4,0,0,1-1.4,1.6,4.9,4.9,0,0,1-2.1.8h-9.1Zm3.1,2.6V17h4.4a1.9,1.9,0,0,0,1.3-.5,1.7,1.7,0,0,0,.4-1.3,1.5,1.5,0,0,0-.4-1.1,1.7,1.7,0,0,0-1.2-.6h-4.5Zm0,6.2v4.2h5.1a1.9,1.9,0,0,0,1.2-.7,1.7,1.7,0,0,0,.4-1.3,2.1,2.1,0,0,0-.3-1.2l-1-.7a15.2,15.2,0,0,0-2.8-.2Z"/><path class="cls-10" d="M239,21.2l-1.8-.4a2.9,2.9,0,0,1,1-1.6,4.5,4.5,0,0,1,2.2-.5,4.9,4.9,0,0,1,2,.3,1.5,1.5,0,0,1,.9.8,3.6,3.6,0,0,1,.3,1.8v2.3a5.8,5.8,0,0,0,.1,1.5,5.4,5.4,0,0,0,.3,1h-1.9c-.1-.1-.1-.3-.2-.6v-.2a2.6,2.6,0,0,1-1.1.7,2.7,2.7,0,0,1-1.2.3,2.5,2.5,0,0,1-1.9-.7,2.1,2.1,0,0,1-.6-1.6,2,2,0,0,1,.3-1.1,3,3,0,0,1,.8-.8l1.6-.4,1.9-.5v-.2c0-.4,0-.7-.2-.8a1.6,1.6,0,0,0-1.1-.3l-.8.2A1.6,1.6,0,0,0,239,21.2Zm2.6,1.6-1.2.3-1.1.3a.9.9,0,0,0-.3.7,1.3,1.3,0,0,0,.3.8,1,1,0,0,0,.8.3,2.1,2.1,0,0,0,1-.4,1.8,1.8,0,0,0,.5-.7V22.8Z"/><path class="cls-10" d="M244.9,24.2l2-.3a1.3,1.3,0,0,0,.5.9,1.8,1.8,0,0,0,1.1.3,2.1,2.1,0,0,0,1.2-.3.8.8,0,0,0,.2-.5.6.6,0,0,0-.1-.4,1,1,0,0,0-.7-.2,13.7,13.7,0,0,1-3.1-1,2.1,2.1,0,0,1-.8-1.7,2.2,2.2,0,0,1,.7-1.7,3.8,3.8,0,0,1,2.4-.6,3.6,3.6,0,0,1,2.3.5,2.5,2.5,0,0,1,1.1,1.5l-1.9.3a1.2,1.2,0,0,0-.5-.7l-.9-.2-1.2.2a.8.8,0,0,0-.2.4.5.5,0,0,0,.2.4l1.9.6a4.5,4.5,0,0,1,2.2.9,1.7,1.7,0,0,1,.6,1.4,2.5,2.5,0,0,1-.8,1.8,4,4,0,0,1-2.6.8,3.6,3.6,0,0,1-2.4-.7A2.7,2.7,0,0,1,244.9,24.2Z"/><path class="cls-10" d="M258,24l2,.3a2.7,2.7,0,0,1-1.2,1.7,3.2,3.2,0,0,1-2,.6,3.7,3.7,0,0,1-3-1.3,4.4,4.4,0,0,1-.7-2.6,4,4,0,0,1,1-3,3.2,3.2,0,0,1,2.5-1,3,3,0,0,1,2.6,1.1,4.3,4.3,0,0,1,.9,3.4h-5a2.6,2.6,0,0,0,.5,1.4,1.7,1.7,0,0,0,1.2.5,1.1,1.1,0,0,0,.8-.3A1.5,1.5,0,0,0,258,24Zm.2-2a2.2,2.2,0,0,0-.5-1.3,1.4,1.4,0,0,0-1-.5,1.4,1.4,0,0,0-1.1.5,1.7,1.7,0,0,0-.4,1.3Z"/><path class="cls-10" d="M268.7,26.4h-1.9V25.3a2.4,2.4,0,0,1-1.1.9,1.9,1.9,0,0,1-1.2.4,2.8,2.8,0,0,1-2.2-1.1,3.9,3.9,0,0,1-1-2.9,4,4,0,0,1,.9-2.9,2.9,2.9,0,0,1,2.3-1,2.7,2.7,0,0,1,2.2,1V16h2Zm-5.3-3.9a3.7,3.7,0,0,0,.3,1.7,1.6,1.6,0,0,0,1.3.8,1.4,1.4,0,0,0,1.2-.6,3,3,0,0,0,.5-1.8,3,3,0,0,0-.5-1.8,1.4,1.4,0,0,0-1.2-.6,1.7,1.7,0,0,0-1.2.6A2.5,2.5,0,0,0,263.4,22.5Z"/><path class="cls-9" d="M275.2,26.4V10.8h4.7l2.9,10.6,2.8-10.6h4.7V26.4h-2.9V14.1l-3.1,12.3h-3.1l-3.1-12.3V26.4Z"/><path class="cls-10" d="M297.3,24l2,.3A3.3,3.3,0,0,1,298,26a3.2,3.2,0,0,1-2,.6,3.5,3.5,0,0,1-2.9-1.3,4.5,4.5,0,0,1-.8-2.6,4,4,0,0,1,1-3,3.2,3.2,0,0,1,2.5-1,3,3,0,0,1,2.6,1.1,4.8,4.8,0,0,1,1,3.4h-5a2,2,0,0,0,.4,1.4,1.7,1.7,0,0,0,1.2.5,1.1,1.1,0,0,0,.8-.3A1.6,1.6,0,0,0,297.3,24Zm.1-2a1.7,1.7,0,0,0-.5-1.3,1.4,1.4,0,0,0-1-.5,1.6,1.6,0,0,0-1.1.5,1.7,1.7,0,0,0-.4,1.3Z"/><path class="cls-10" d="M307.9,26.4h-1.8V25.3a4.4,4.4,0,0,1-1.1.9,2.4,2.4,0,0,1-1.3.4,2.8,2.8,0,0,1-2.2-1.1,4.4,4.4,0,0,1-1-2.9,4,4,0,0,1,.9-2.9,2.9,2.9,0,0,1,2.3-1,2.7,2.7,0,0,1,2.2,1V16h2Zm-5.3-3.9a3.7,3.7,0,0,0,.3,1.7,1.6,1.6,0,0,0,1.4.8,1.4,1.4,0,0,0,1.1-.6,2.4,2.4,0,0,0,.5-1.8,3,3,0,0,0-.4-1.8,1.7,1.7,0,0,0-1.2-.6,1.4,1.4,0,0,0-1.2.6C302.7,21.1,302.6,21.7,302.6,22.5Z"/><path class="cls-10" d="M309.9,17.8V16h2v1.8Zm0,8.6V18.8h2v7.6Z"/><path class="cls-10" d="M320.5,21.1l-2,.3a1.3,1.3,0,0,0-.4-.9,1.4,1.4,0,0,0-.9-.3,1.4,1.4,0,0,0-1.2.6,2.5,2.5,0,0,0-.5,1.7,3.1,3.1,0,0,0,.5,1.9,1.3,1.3,0,0,0,1.2.5,1.2,1.2,0,0,0,.9-.3,1.6,1.6,0,0,0,.5-1.1l2,.3a3.7,3.7,0,0,1-1.2,2.1,3.7,3.7,0,0,1-2.3.7,3.3,3.3,0,0,1-2.6-1.1,3.8,3.8,0,0,1-1-2.9,3.9,3.9,0,0,1,1-2.9,3.3,3.3,0,0,1,2.6-1,3.4,3.4,0,0,1,2.2.6A2.9,2.9,0,0,1,320.5,21.1Z"/><path class="cls-10" d="M322,17.8V16h2v1.8Zm0,8.6V18.8h2v7.6Z"/><path class="cls-10" d="M332.9,26.4h-2V22.5a5,5,0,0,0-.1-1.5.9.9,0,0,0-.4-.6l-.7-.2a1.2,1.2,0,0,0-.9.3,1.3,1.3,0,0,0-.6.7A6.8,6.8,0,0,0,328,23v3.4h-2V18.8h1.9V20a3,3,0,0,1,2.5-1.3l1.2.2.8.6a2.5,2.5,0,0,1,.4.9,4.5,4.5,0,0,1,.1,1.3Z"/><path class="cls-10" d="M339.3,24l2,.3a2.7,2.7,0,0,1-1.2,1.7,3.3,3.3,0,0,1-2.1.6,3.5,3.5,0,0,1-2.9-1.3,4.4,4.4,0,0,1-.7-2.6,4,4,0,0,1,1-3,3,3,0,0,1,2.4-1,3.2,3.2,0,0,1,2.7,1.1,4.8,4.8,0,0,1,.9,3.4h-5a2,2,0,0,0,.5,1.4,1.7,1.7,0,0,0,1.2.5.9.9,0,0,0,.7-.3A1.1,1.1,0,0,0,339.3,24Zm.1-2a1.7,1.7,0,0,0-.4-1.3,1.4,1.4,0,0,0-1-.5,1.4,1.4,0,0,0-1.1.5,1.4,1.4,0,0,0-.4,1.3Z"/><path class="cls-13" d="M174.9,14a1.7,1.7,0,0,0-2.1.1l-.2.3-.2-.3a1.7,1.7,0,0,0-2.1-.1,1.6,1.6,0,0,0-.1,2.3l2.2,2.2c.1.2.3.2.5,0l2.1-2.2a1.6,1.6,0,0,0-.1-2.3Z"/><path class="cls-13" d="M313.2,14a1.7,1.7,0,0,0-2.1.1l-.2.3-.2-.3a1.7,1.7,0,0,0-2.1-.1,1.6,1.6,0,0,0-.1,2.3l2.2,2.2c.1.2.3.2.5,0l2.1-2.2a1.6,1.6,0,0,0-.1-2.3Z"/></g></g></svg>